#!OML:ASF F:\VICON\USERDATA\INSTALL\rory3\rory3.ASF
:FULLY-SPECIFIED
:DEGREES
73
root -0.21522521214985338 17.75022663675767 2.43084092211069 5.577259971427676 -0.4587379148085219 0.7968910836881373
lfemur 10.804113566398724 -0.6934855897091119 -27.32837901728672
ltibia 30.53886717312174
lfoot -4.635970048732123 -2.4820563168201613
ltoes -26.81440991920791
rfemur -56.9515525152583 -3.887497723600101 21.901515302615934
rtibia 94.10721514127658
rfoot 1.3725120983458599 -2.9155461022452385
rtoes 1.0683045434498184
lowerback 15.927911177248165 -0.830940967658782 -4.421012261183922
upperback -1.218446435527854 -1.8721569914549328 1.2580708432649677
thorax -10.19970314344647 -0.5830519195602585 5.1479829291595385
lowerneck -21.192216811601188 -2.4093582116679677 -1.816405830961257
upperneck 13.23744599637048 -3.360328803976975 3.4396163280369394
head 7.625162382470158 -1.327361167069867 1.0742756302614005
lclavicle -1.991239822458118e-15 1.593058560748133e-15
lhumerus -28.362102359017754 -19.795221494522472 96.25708326538803
lradius 118.63414434377732
lwrist 37.462924220697495
lhand -25.017873347274133 0.7021062861638219
lfingers 7.12502
lthumb 1.4941863061354776 30.654101351081703
rclavicle -1.991239822458118e-15 1.593058560748133e-15
rhumerus -64.4669895504643 6.194274879498938 -99.6299160771087
rradius 106.25449814567885
rwrist -13.150519474003008
rhand -15.303609181686923 39.63608749575027
rfingers 7.12502
rthumb 10.871605317482414 9.794274508406932
74
root -0.14715576980936912 18.03393997404627 5.648270763709262 5.8440959900138685 -1.3537915629138686 0.4726472539732214
lfemur 15.495706955614269 -1.15557594349961 -27.138523815312574
ltibia 26.897535006868562
lfoot 3.9820882270183198 -5.716507966271048
ltoes -27.475226231429197
rfemur -56.50577152989392 -2.1804335847899243 22.85594905915596
rtibia 80.99272432773547
rfoot 1.2901140964403028 -1.83506919562599
rtoes -3.9953162079380466
lowerback 15.272297341689747 -1.1709840953869795 -4.029804423003155
upperback -1.5468219543572912 -2.2060728418901028 1.686746387075561
thorax -10.036766451494907 -0.7465909149167452 5.499098435417502
lowerneck -21.02466507566184 -2.085202073366946 -1.8854925284023665
upperneck 13.80198184893769 -2.8546192380104918 3.124089762267627
head 7.741762397961504 -1.1206139372837083 1.0160602258750235
lclavicle -1.6692990678156636e-15 1.8265470654431933e-15
lhumerus -28.21083385665573 -19.52511762181851 95.39806512781858
lradius 121.39726851175864
lwrist 37.798014033665474
lhand -24.7467687458041 0.48622614097765204
lfingers 7.12502
lthumb 1.7560184109144539 30.4360688580606
rclavicle -1.6692990678156636e-15 1.8265470654431933e-15
rhumerus -66.31218183196533 5.827740096748858 -98.44769747812353
rradius 107.93403560445468
rwrist -12.984854077674893
rhand -15.139584680416306 39.73416372537379
rfingers 7.12502
rthumb 11.029962832089996 9.894390208293329
75
root -0.09278491757021864 18.258842336755272 8.09447495490062 5.962311484281706 -2.18806535468473 0.23038258643276333
lfemur 18.567408973207165 -1.954330673406545 -27.298994913696358
ltibia 24.227457916452117
lfoot 11.38417536211458 -8.758430545790773
ltoes -26.362716357095557
rfemur -55.431424965300636 -0.7807739954906512 23.47049697259209
rtibia 67.22013184348279
rfoot 1.435401998846472 -1.095216438342005
rtoes -8.999724757647119
lowerback 14.658010856450746 -1.462032278121407 -3.7553788631841076
upperback -1.8333527336215836 -2.501240054549064 1.9698575128769609
thorax -9.89188660125199 -0.8916901632525299 5.638108616531431
lowerneck -20.902418178657843 -1.9020225746741073 -1.9877945218719282
upperneck 14.244754237936812 -2.5452362594144096 2.8469169680706696
head 7.8334933085132175 -1.002803264818214 0.9590252870854286
lclavicle -1.9750981323123024e-15 1.6046694660323726e-15
lhumerus -28.874954541611938 -19.731836391735612 94.6617719652821
lradius 122.85647219703057
lwrist 37.56250748945034
lhand -24.528514430874477 0.34083420239484674
lfingers 7.12502
lthumb 1.966824292300003 30.28990120553437
rclavicle -1.9750981323123024e-15 1.6046694660323726e-15
rhumerus -67.9302662031639 4.942171716579859 -97.2701851068621
rradius 109.17397965297508
rwrist -12.535107405645316
rhand -15.16228291718839 39.795580006025425
rfingers 7.12502
rthumb 11.008113847056283 9.944309709406149
76
root -0.05483884596942809 18.416552769739788 10.261587360180243 5.954013962322427 -2.7737774231589194 0.12308859613997392
lfemur 20.209398003331117 -2.950447291314361 -27.70372303530161
ltibia 22.85113432006122
lfoot 16.857523071742232 -11.20965308298638
ltoes -24.07675076251226
rfemur -53.772173702008416 0.16208934639834627 23.824492515304268
rtibia 54.8687305011435
rfoot 2.0280929525959976 -0.6993651690709637
rtoes -12.997994999609944
lowerback 14.148940037790425 -1.6760260929930175 -3.5637370550955687
upperback -2.045105237340893 -2.723362666309444 2.1049087841683614
thorax -9.759000932407593 -1.0027052079644783 5.61028483552214
lowerneck -20.798946847848043 -1.8406630821040457 -2.1136498158663186
upperneck 14.540448101138136 -2.4104977260608624 2.6512995001416435
head 7.8929531917006726 -0.961195766416614 0.9184083505302387
lclavicle -2.4775047381223387e-15 1.240288065725781e-15
lhumerus -29.969450870712382 -20.163522567482143 94.0931157202727
lradius 123.27544413078277
lwrist 36.93601298138639
lhand -24.359726804233638 0.2564254432026456
lfingers 7.12502
lthumb 2.129862680290077 30.20676902034596
rclavicle -2.4775047381223387e-15 1.240288065725781e-15
rhumerus -69.11653612311304 3.794999593398215 -96.2349197730459
rradius 110.09787788421662
rwrist -11.955708153539899
rhand -15.242186813432477 39.84098779192658
rfingers 7.12502
rthumb 10.931048512846925 9.986670552323305
77
root -0.02073321841790654 18.527076882724685 12.104236099575438 5.9081894656801905 -3.1144218936485832 0.22671683542039078
lfemur 21.4373114592479 -3.9054752499377154 -28.107423038702585
ltibia 23.417729603400062
lfoot 20.941646988708946 -12.99690462463507
ltoes -21.098365353478258
rfemur -51.68950473385301 0.7365268029588785 24.124837707598903
rtibia 44.920487946044545
rfoot 2.9976732927337633 -0.42810474120965303
rtoes -15.775118139069537
lowerback 13.820836955871078 -1.8171335297745803 -3.4073605328296956
upperback -2.14638217202753 -2.8707244515507337 2.1646006041539314
thorax -9.628780234796068 -1.0792296388956846 5.593672436710945
lowerneck -20.68619313935696 -1.8194188922100063 -2.225524075337636
upperneck 14.709853294377195 -2.3334050004279376 2.5316705072909373
head 7.923325893512833 -0.9436419545375014 0.895577266847825
lclavicle -2.464885618287333e-15 1.2495371681192033e-15
lhumerus -30.743275257505008 -20.579804269971145 93.73344176241756
lradius 123.01988694118755
lwrist 36.24716070643552
lhand -24.23258511323043 0.22487011136530288
lfingers 7.12502
lthumb 2.2526812584510205 30.17763934125965
rclavicle -2.464885618287333e-15 1.2495371681192033e-15
rhumerus -69.75714177483172 2.6440178713470823 -95.25877726154195
rradius 110.86670315106181
rwrist -11.278190077193063
rhand -15.316224953013682 39.92995105342524
rfingers 7.12502
rthumb 10.859625134604354 10.069545003107198
78
root 0.01116774881046173 18.59688164029251 13.475277232487759 5.835878598415068 -3.2948031280012535 0.47663734601277286
lfemur 22.358846877560474 -4.683806035416246 -28.379605770718314
ltibia 25.907211495069582
lfoot 23.898317621994007 -14.215957359239518
ltoes -17.74228948239308
rfemur -49.29368397585604 1.0554946737711433 24.477071019610882
rtibia 37.367607510133155
rfoot 4.145087495418249 -0.2343946860465813
rtoes -17.24981581749241
lowerback 13.67648085473767 -1.8874871082558733 -3.2542482683355356
upperback -2.139977082169473 -2.9377509438286307 2.1841806174095595
thorax -9.505046416426898 -1.1189848090034746 5.607745867658566
lowerneck -20.558186419988502 -1.8145077024656409 -2.3195497111391425
upperneck 14.760997731247956 -2.2803877397228676 2.4695020352657
head 7.924966845964098 -0.9354922800197352 0.8871935925740515
lclavicle -1.9370346767644765e-15 1.632535295656081e-15
lhumerus -31.20984956547529 -20.902764963442387 93.57945482829331
lradius 122.26543446593894
lwrist 35.591867936542826
lhand -24.154724453581363 0.21297937530544964
lfingers 7.12502
lthumb 2.3279028633630383 30.168703910943
rclavicle -1.9370346767644765e-15 1.632535295656081e-15
rhumerus -69.87758766787917 1.5734625602170098 -94.33905638555788
rradius 111.48152761966807
rwrist -10.521604338621321
rhand -15.386303834460554 40.06836710748033
rfingers 7.12502
rthumb 10.792009534699437 10.198645805072049
